<svg width="3662" height="1650" xmlns="http://www.w3.org/2000/svg" xmlns:xlink="http://www.w3.org/1999/xlink" xml:space="preserve" overflow="hidden"><g transform="translate(-4 -22)"><g><rect x="7.9999" y="72.9999" width="3656" height="1596" fill="#FFFFFF" fill-opacity="1"/><path d="M275.5 166.5 883.498 166.5 978.5 261.502 978.5 736.5 275.5 736.5Z" stroke="#156082" stroke-width="6.875" stroke-linecap="butt" stroke-linejoin="miter" stroke-miterlimit="8" stroke-opacity="1" fill="none" fill-rule="evenodd"/><text fill="#000000" fill-opacity="1" font-family="Aptos,Aptos_MSFontService,sans-serif" font-style="normal" font-variant="normal" font-weight="400" font-stretch="normal" font-size="83" text-anchor="start" direction="ltr" writing-mode="lr-tb" unicode-bidi="normal" text-decoration="none" transform="matrix(1 0 0 1 413.809 402)">Paraphase</text><text fill="#000000" fill-opacity="1" font-family="Aptos,Aptos_MSFontService,sans-serif" font-style="normal" font-variant="normal" font-weight="400" font-stretch="normal" font-size="83" text-anchor="start" direction="ltr" writing-mode="lr-tb" unicode-bidi="normal" text-decoration="none" transform="matrix(1 0 0 1 472.201 501)">output:</text><text fill="#000000" fill-opacity="1" font-family="Aptos,Aptos_MSFontService,sans-serif" font-style="normal" font-variant="normal" font-weight="400" font-stretch="normal" font-size="83" text-anchor="start" direction="ltr" writing-mode="lr-tb" unicode-bidi="normal" text-decoration="none" transform="matrix(1 0 0 1 402.764 600)">BAM+JSON</text><text fill="#000000" fill-opacity="1" font-family="Aptos,Aptos_MSFontService,sans-serif" font-style="normal" font-variant="normal" font-weight="400" font-stretch="normal" font-size="83" text-anchor="start" direction="ltr" writing-mode="lr-tb" unicode-bidi="normal" text-decoration="none" transform="matrix(1 0 0 1 630.784 125)">A</text><text fill="#000000" fill-opacity="1" font-family="Aptos,Aptos_MSFontService,sans-serif" font-style="normal" font-variant="normal" font-weight="400" font-stretch="normal" font-size="83" text-anchor="start" direction="ltr" writing-mode="lr-tb" unicode-bidi="normal" text-decoration="none" transform="matrix(1 0 0 1 1423.32 125)">B</text><text fill="#000000" fill-opacity="1" font-family="Aptos,Aptos_MSFontService,sans-serif" font-style="normal" font-variant="normal" font-weight="400" font-stretch="normal" font-size="83" text-anchor="start" direction="ltr" writing-mode="lr-tb" unicode-bidi="normal" text-decoration="none" transform="matrix(1 0 0 1 2209.74 125)">C</text><text fill="#000000" fill-opacity="1" font-family="Aptos,Aptos_MSFontService,sans-serif" font-style="normal" font-variant="normal" font-weight="400" font-stretch="normal" font-size="83" text-anchor="start" direction="ltr" writing-mode="lr-tb" unicode-bidi="normal" text-decoration="none" transform="matrix(1 0 0 1 3059.05 125)">D</text><text fill="#000000" fill-opacity="1" font-family="Aptos,Aptos_MSFontService,sans-serif" font-style="normal" font-variant="normal" font-weight="400" font-stretch="normal" font-size="83" text-anchor="start" direction="ltr" writing-mode="lr-tb" unicode-bidi="normal" text-decoration="none" transform="matrix(1 0 0 1 608.436 1348)">E</text><text fill="#000000" fill-opacity="1" font-family="Aptos,Aptos_MSFontService,sans-serif" font-style="normal" font-variant="normal" font-weight="400" font-stretch="normal" font-size="83" text-anchor="start" direction="ltr" writing-mode="lr-tb" unicode-bidi="normal" text-decoration="none" transform="matrix(1 0 0 1 1414.87 1348)">F</text><text fill="#000000" fill-opacity="1" font-family="Aptos,Aptos_MSFontService,sans-serif" font-style="normal" font-variant="normal" font-weight="400" font-stretch="normal" font-size="83" text-anchor="start" direction="ltr" writing-mode="lr-tb" unicode-bidi="normal" text-decoration="none" transform="matrix(1 0 0 1 2209.74 1348)">G</text><path d="M1148 256.835C1148 206.668 1188.67 166 1238.84 166L1700.16 166C1750.33 166 1791 206.668 1791 256.835L1791 620.165C1791 670.332 1750.33 711 1700.16 711L1238.84 711C1188.67 711 1148 670.332 1148 620.165Z" fill="#83CBEB" fill-rule="evenodd" fill-opacity="1"/><text fill="#000000" fill-opacity="1" font-family="Aptos,Aptos_MSFontService,sans-serif" font-style="normal" font-variant="normal" font-weight="400" font-stretch="normal" font-size="83" text-anchor="start" direction="ltr" writing-mode="lr-tb" unicode-bidi="normal" text-decoration="none" transform="matrix(1 0 0 1 1217.98 366)">(Optional) use </text><text fill="#000000" fill-opacity="1" font-family="Aptos,Aptos_MSFontService,sans-serif" font-style="normal" font-variant="normal" font-weight="400" font-stretch="normal" font-size="83" text-anchor="start" direction="ltr" writing-mode="lr-tb" unicode-bidi="normal" text-decoration="none" transform="matrix(1 0 0 1 1207.86 465)">pedigree file to </text><text fill="#000000" fill-opacity="1" font-family="Aptos,Aptos_MSFontService,sans-serif" font-style="normal" font-variant="normal" font-weight="400" font-stretch="normal" font-size="83" text-anchor="start" direction="ltr" writing-mode="lr-tb" unicode-bidi="normal" text-decoration="none" transform="matrix(1 0 0 1 1249.45 564)">identify trios</text><path d="M1932 257.835C1932 207.668 1972.67 167 2022.83 167L2484.17 167C2534.33 167 2575 207.668 2575 257.835L2575 621.165C2575 671.332 2534.33 712 2484.17 712L2022.83 712C1972.67 712 1932 671.332 1932 621.165Z" fill="#E97132" fill-rule="evenodd" fill-opacity="1"/><text fill="#000000" fill-opacity="1" font-family="Aptos,Aptos_MSFontService,sans-serif" font-style="normal" font-variant="normal" font-weight="400" font-stretch="normal" font-size="83" text-anchor="start" direction="ltr" writing-mode="lr-tb" unicode-bidi="normal" text-decoration="none" transform="matrix(1 0 0 1 2007.17 367)">Split BAM into </text><text fill="#000000" fill-opacity="1" font-family="Aptos,Aptos_MSFontService,sans-serif" font-style="normal" font-variant="normal" font-weight="400" font-stretch="normal" font-size="83" text-anchor="start" direction="ltr" writing-mode="lr-tb" unicode-bidi="normal" text-decoration="none" transform="matrix(1 0 0 1 2072.69 466)">per</text><text fill="#000000" fill-opacity="1" font-family="Aptos,Aptos_MSFontService,sans-serif" font-style="normal" font-variant="normal" font-weight="400" font-stretch="normal" font-size="83" text-anchor="start" direction="ltr" writing-mode="lr-tb" unicode-bidi="normal" text-decoration="none" transform="matrix(1 0 0 1 2186.68 466)">-</text><text fill="#000000" fill-opacity="1" font-family="Aptos,Aptos_MSFontService,sans-serif" font-style="normal" font-variant="normal" font-weight="400" font-stretch="normal" font-size="83" text-anchor="start" direction="ltr" writing-mode="lr-tb" unicode-bidi="normal" text-decoration="none" transform="matrix(1 0 0 1 2214.75 466)">region </text><text fill="#000000" fill-opacity="1" font-family="Aptos,Aptos_MSFontService,sans-serif" font-style="normal" font-variant="normal" font-weight="400" font-stretch="normal" font-size="83" text-anchor="start" direction="ltr" writing-mode="lr-tb" unicode-bidi="normal" text-decoration="none" transform="matrix(1 0 0 1 2106.54 565)">BAMlets</text><path d="M2756 256.835C2756 206.668 2796.67 166 2846.83 166L3309.17 166C3359.33 166 3400 206.668 3400 256.835L3400 620.165C3400 670.332 3359.33 711 3309.17 711L2846.83 711C2796.67 711 2756 670.332 2756 620.165Z" fill="#0F9ED5" fill-rule="evenodd" fill-opacity="1"/><text fill="#000000" fill-opacity="1" font-family="Aptos,Aptos_MSFontService,sans-serif" font-style="normal" font-variant="normal" font-weight="400" font-stretch="normal" font-size="83" text-anchor="start" direction="ltr" writing-mode="lr-tb" unicode-bidi="normal" text-decoration="none" transform="matrix(1 0 0 1 2835.25 316)">Extract region </text><text fill="#000000" fill-opacity="1" font-family="Aptos,Aptos_MSFontService,sans-serif" font-style="normal" font-variant="normal" font-weight="400" font-stretch="normal" font-size="83" text-anchor="start" direction="ltr" writing-mode="lr-tb" unicode-bidi="normal" text-decoration="none" transform="matrix(1 0 0 1 2844.46 415)">copy number </text><text fill="#000000" fill-opacity="1" font-family="Aptos,Aptos_MSFontService,sans-serif" font-style="normal" font-variant="normal" font-weight="400" font-stretch="normal" font-size="83" text-anchor="start" direction="ltr" writing-mode="lr-tb" unicode-bidi="normal" text-decoration="none" transform="matrix(1 0 0 1 2872.7 514)">and special </text><text fill="#000000" fill-opacity="1" font-family="Aptos,Aptos_MSFontService,sans-serif" font-style="normal" font-variant="normal" font-weight="400" font-stretch="normal" font-size="83" text-anchor="start" direction="ltr" writing-mode="lr-tb" unicode-bidi="normal" text-decoration="none" transform="matrix(1 0 0 1 3011.3 613)">info</text><path d="M328 1145.83C328 1095.67 368.668 1055 418.835 1055L881.165 1055C931.332 1055 972 1095.67 972 1145.83L972 1509.16C972 1559.33 931.332 1600 881.165 1600L418.835 1600C368.668 1600 328 1559.33 328 1509.16Z" fill="#E59EDD" fill-rule="evenodd" fill-opacity="1"/><text fill="#000000" fill-opacity="1" font-family="Aptos,Aptos_MSFontService,sans-serif" font-style="normal" font-variant="normal" font-weight="400" font-stretch="normal" font-size="83" text-anchor="start" direction="ltr" writing-mode="lr-tb" unicode-bidi="normal" text-decoration="none" transform="matrix(1 0 0 1 405.86 1255)">Generate per</text><text fill="#000000" fill-opacity="1" font-family="Aptos,Aptos_MSFontService,sans-serif" font-style="normal" font-variant="normal" font-weight="400" font-stretch="normal" font-size="83" text-anchor="start" direction="ltr" writing-mode="lr-tb" unicode-bidi="normal" text-decoration="none" transform="matrix(1 0 0 1 865.729 1255)">-</text><text fill="#000000" fill-opacity="1" font-family="Aptos,Aptos_MSFontService,sans-serif" font-style="normal" font-variant="normal" font-weight="400" font-stretch="normal" font-size="83" text-anchor="start" direction="ltr" writing-mode="lr-tb" unicode-bidi="normal" text-decoration="none" transform="matrix(1 0 0 1 468.354 1354)">region IGV </text><text fill="#000000" fill-opacity="1" font-family="Aptos,Aptos_MSFontService,sans-serif" font-style="normal" font-variant="normal" font-weight="400" font-stretch="normal" font-size="83" text-anchor="start" direction="ltr" writing-mode="lr-tb" unicode-bidi="normal" text-decoration="none" transform="matrix(1 0 0 1 430.106 1453)">session files</text><path d="M1149 1145.83C1149 1095.67 1189.67 1055 1239.83 1055L1702.17 1055C1752.33 1055 1793 1095.67 1793 1145.83L1793 1509.16C1793 1559.33 1752.33 1600 1702.17 1600L1239.83 1600C1189.67 1600 1149 1559.33 1149 1509.16Z" fill="#4EA72E" fill-rule="evenodd" fill-opacity="1"/><text fill="#000000" fill-opacity="1" font-family="Aptos,Aptos_MSFontService,sans-serif" font-style="normal" font-variant="normal" font-weight="400" font-stretch="normal" font-size="83" text-anchor="start" direction="ltr" writing-mode="lr-tb" unicode-bidi="normal" text-decoration="none" transform="matrix(1 0 0 1 1279.4 1305)">Create IGV </text><text fill="#000000" fill-opacity="1" font-family="Aptos,Aptos_MSFontService,sans-serif" font-style="normal" font-variant="normal" font-weight="400" font-stretch="normal" font-size="83" text-anchor="start" direction="ltr" writing-mode="lr-tb" unicode-bidi="normal" text-decoration="none" transform="matrix(1 0 0 1 1258.34 1404)">batch script</text><path d="M1938 1145.83C1938 1095.67 1978.67 1055 2028.84 1055L2490.17 1055C2540.33 1055 2581 1095.67 2581 1145.83L2581 1509.16C2581 1559.33 2540.33 1600 2490.17 1600L2028.84 1600C1978.67 1600 1938 1559.33 1938 1509.16Z" fill="#FFC000" fill-rule="evenodd" fill-opacity="1"/><text fill="#000000" fill-opacity="1" font-family="Aptos,Aptos_MSFontService,sans-serif" font-style="normal" font-variant="normal" font-weight="400" font-stretch="normal" font-size="83" text-anchor="start" direction="ltr" writing-mode="lr-tb" unicode-bidi="normal" text-decoration="none" transform="matrix(1 0 0 1 2023.33 1206)">Generate IGV </text><text fill="#000000" fill-opacity="1" font-family="Aptos,Aptos_MSFontService,sans-serif" font-style="normal" font-variant="normal" font-weight="400" font-stretch="normal" font-size="83" text-anchor="start" direction="ltr" writing-mode="lr-tb" unicode-bidi="normal" text-decoration="none" transform="matrix(1 0 0 1 2039.57 1305)">screenshots </text><text fill="#000000" fill-opacity="1" font-family="Aptos,Aptos_MSFontService,sans-serif" font-style="normal" font-variant="normal" font-weight="400" font-stretch="normal" font-size="83" text-anchor="start" direction="ltr" writing-mode="lr-tb" unicode-bidi="normal" text-decoration="none" transform="matrix(1 0 0 1 2098.15 1404)">via batch </text><text fill="#000000" fill-opacity="1" font-family="Aptos,Aptos_MSFontService,sans-serif" font-style="normal" font-variant="normal" font-weight="400" font-stretch="normal" font-size="83" text-anchor="start" direction="ltr" writing-mode="lr-tb" unicode-bidi="normal" text-decoration="none" transform="matrix(1 0 0 1 2156.59 1503)">mode</text><path d="M1022 389 1076 389 1076 370 1114 408 1076 446 1076 427 1022 427Z" fill="#404040" fill-rule="evenodd" fill-opacity="1"/><path d="M1823 389 1877 389 1877 370 1915 408 1877 446 1877 427 1823 427Z" fill="#404040" fill-rule="evenodd" fill-opacity="1"/><path d="M1825 1296 1878 1296 1878 1277 1916 1315 1878 1353 1878 1334 1825 1334Z" fill="#404040" fill-rule="evenodd" fill-opacity="1"/><path d="M2635 389 2688 389 2688 370 2726 408 2688 446 2688 427 2635 427Z" fill="#404040" fill-rule="evenodd" fill-opacity="1"/><path d="M2636 1317 2690 1317 2690 1298 2728 1336 2690 1374 2690 1355 2636 1355Z" fill="#404040" fill-rule="evenodd" fill-opacity="1"/><path d="M1025 1305 1078 1305 1078 1286 1116 1324 1078 1362 1078 1343 1025 1343Z" fill="#404040" fill-rule="evenodd" fill-opacity="1"/><path d="M0 3357 0 227.335C-2.67121e-14 101.782 101.782-2.67119e-14 227.336-2.67119e-14L284.234 0C409.788-2.67119e-14 511.57 101.782 511.57 227.335L511.567 227.335 525 227.335 493.111 250.299 461.222 227.335 474.656 227.335C474.656 122.169 389.401 36.9145 284.234 36.9145L227.336 36.9108C122.169 36.9108 36.9147 122.165 36.9147 227.332L36.911 3357Z" fill="#404040" fill-rule="evenodd" fill-opacity="1" transform="matrix(1.83697e-16 1 1 -1.83697e-16 70.0001 836)"/><path d="M3427.5 415.5 3462.32 415.5C3557.41 415.5 3634.5 492.587 3634.5 587.678L3634.5 698.695C3634.5 793.786 3557.41 870.873 3462.32 870.873L3427.5 870.873 3427.5 871.5 3427.5 854.311 3427.5 837.121 3427.5 837.749 3462.32 837.749C3539.12 837.749 3601.38 775.492 3601.38 698.695L3601.38 587.678C3601.38 510.881 3539.12 448.624 3462.32 448.624L3427.5 448.624Z" stroke="#404040" stroke-width="3.4375" stroke-linecap="butt" stroke-linejoin="miter" stroke-miterlimit="8" stroke-opacity="1" fill="#404040" fill-rule="evenodd" fill-opacity="1"/><path d="M328.5 961.834C328.5 952.813 335.813 945.5 344.834 945.5L2559.17 945.5C2568.19 945.5 2575.5 952.813 2575.5 961.834L2575.5 1027.17C2575.5 1036.19 2568.19 1043.5 2559.17 1043.5L344.834 1043.5C335.813 1043.5 328.5 1036.19 328.5 1027.17Z" stroke="#404040" stroke-width="6.875" stroke-linecap="butt" stroke-linejoin="miter" stroke-miterlimit="8" stroke-opacity="1" fill="none" fill-rule="evenodd"/><text fill="#000000" fill-opacity="1" font-family="Aptos,Aptos_MSFontService,sans-serif" font-style="normal" font-variant="normal" font-weight="400" font-stretch="normal" font-size="83" text-anchor="start" direction="ltr" writing-mode="lr-tb" unicode-bidi="normal" text-decoration="none" transform="matrix(1 0 0 1 1000.56 1020)">For each sample and trio:</text><path d="M2784 1145.83C2784 1095.67 2824.67 1055 2874.83 1055L3336.16 1055C3386.33 1055 3427 1095.67 3427 1145.83L3427 1509.16C3427 1559.33 3386.33 1600 3336.16 1600L2874.83 1600C2824.67 1600 2784 1559.33 2784 1509.16Z" fill="#E382FF" fill-rule="evenodd" fill-opacity="1"/><text fill="#000000" fill-opacity="1" font-family="Aptos,Aptos_MSFontService,sans-serif" font-style="normal" font-variant="normal" font-weight="400" font-stretch="normal" font-size="83" text-anchor="start" direction="ltr" writing-mode="lr-tb" unicode-bidi="normal" text-decoration="none" transform="matrix(1 0 0 1 2866.89 1255)">Write custom </text><text fill="#000000" fill-opacity="1" font-family="Aptos,Aptos_MSFontService,sans-serif" font-style="normal" font-variant="normal" font-weight="400" font-stretch="normal" font-size="83" text-anchor="start" direction="ltr" writing-mode="lr-tb" unicode-bidi="normal" text-decoration="none" transform="matrix(1 0 0 1 2879.84 1354)">web page for </text><text fill="#000000" fill-opacity="1" font-family="Aptos,Aptos_MSFontService,sans-serif" font-style="normal" font-variant="normal" font-weight="400" font-stretch="normal" font-size="83" text-anchor="start" direction="ltr" writing-mode="lr-tb" unicode-bidi="normal" text-decoration="none" transform="matrix(1 0 0 1 2973.47 1453)">viewing</text></g></g></svg>