<svg width="3657" height="1668" xmlns="http://www.w3.org/2000/svg" xmlns:xlink="http://www.w3.org/1999/xlink" xml:space="preserve" overflow="hidden"><defs><clipPath id="clip0"><rect x="330" y="417" width="3657" height="1668"/></clipPath><clipPath id="clip1"><rect x="330" y="417" width="3657" height="1668"/></clipPath></defs><g clip-path="url(#clip0)" transform="translate(-330 -417)"><g clip-path="url(#clip1)"><rect x="331" y="419" width="3656" height="1665" fill="#FFFFFF" fill-opacity="1"/><path d="M598.5 581.5 1205.5 581.5 1300.5 676.502 1300.5 1151.5 598.5 1151.5Z" stroke="#156082" stroke-width="6.875" stroke-linecap="butt" stroke-linejoin="miter" stroke-miterlimit="8" stroke-opacity="1" fill="none" fill-rule="evenodd"/><text fill="#000000" fill-opacity="1" font-family="Aptos,Aptos_MSFontService,sans-serif" font-style="normal" font-variant="normal" font-weight="400" font-stretch="normal" font-size="83" text-anchor="start" direction="ltr" writing-mode="lr-tb" unicode-bidi="normal" text-decoration="none" transform="matrix(1 0 0 1 736.392 817)">Paraphase</text><text fill="#000000" fill-opacity="1" font-family="Aptos,Aptos_MSFontService,sans-serif" font-style="normal" font-variant="normal" font-weight="400" font-stretch="normal" font-size="83" text-anchor="start" direction="ltr" writing-mode="lr-tb" unicode-bidi="normal" text-decoration="none" transform="matrix(1 0 0 1 794.784 916)">output:</text><text fill="#000000" fill-opacity="1" font-family="Aptos,Aptos_MSFontService,sans-serif" font-style="normal" font-variant="normal" font-weight="400" font-stretch="normal" font-size="83" text-anchor="start" direction="ltr" writing-mode="lr-tb" unicode-bidi="normal" text-decoration="none" transform="matrix(1 0 0 1 725.347 1015)">BAM+JSON</text><text fill="#000000" fill-opacity="1" font-family="Aptos,Aptos_MSFontService,sans-serif" font-style="normal" font-variant="normal" font-weight="400" font-stretch="normal" font-size="83" text-anchor="start" direction="ltr" writing-mode="lr-tb" unicode-bidi="normal" text-decoration="none" transform="matrix(1 0 0 1 953.367 540)">A</text><text fill="#000000" fill-opacity="1" font-family="Aptos,Aptos_MSFontService,sans-serif" font-style="normal" font-variant="normal" font-weight="400" font-stretch="normal" font-size="83" text-anchor="start" direction="ltr" writing-mode="lr-tb" unicode-bidi="normal" text-decoration="none" transform="matrix(1 0 0 1 1745.9 540)">B</text><text fill="#000000" fill-opacity="1" font-family="Aptos,Aptos_MSFontService,sans-serif" font-style="normal" font-variant="normal" font-weight="400" font-stretch="normal" font-size="83" text-anchor="start" direction="ltr" writing-mode="lr-tb" unicode-bidi="normal" text-decoration="none" transform="matrix(1 0 0 1 2532.33 540)">C</text><text fill="#000000" fill-opacity="1" font-family="Aptos,Aptos_MSFontService,sans-serif" font-style="normal" font-variant="normal" font-weight="400" font-stretch="normal" font-size="83" text-anchor="start" direction="ltr" writing-mode="lr-tb" unicode-bidi="normal" text-decoration="none" transform="matrix(1 0 0 1 3381.63 540)">D</text><text fill="#000000" fill-opacity="1" font-family="Aptos,Aptos_MSFontService,sans-serif" font-style="normal" font-variant="normal" font-weight="400" font-stretch="normal" font-size="83" text-anchor="start" direction="ltr" writing-mode="lr-tb" unicode-bidi="normal" text-decoration="none" transform="matrix(1 0 0 1 931.019 1763)">E</text><text fill="#000000" fill-opacity="1" font-family="Aptos,Aptos_MSFontService,sans-serif" font-style="normal" font-variant="normal" font-weight="400" font-stretch="normal" font-size="83" text-anchor="start" direction="ltr" writing-mode="lr-tb" unicode-bidi="normal" text-decoration="none" transform="matrix(1 0 0 1 1737.45 1763)">F</text><text fill="#000000" fill-opacity="1" font-family="Aptos,Aptos_MSFontService,sans-serif" font-style="normal" font-variant="normal" font-weight="400" font-stretch="normal" font-size="83" text-anchor="start" direction="ltr" writing-mode="lr-tb" unicode-bidi="normal" text-decoration="none" transform="matrix(1 0 0 1 2532.33 1763)">G</text><path d="M1470 671.835C1470 621.668 1510.67 581 1560.84 581L2023.16 581C2073.33 581 2114 621.668 2114 671.835L2114 1035.16C2114 1085.33 2073.33 1126 2023.16 1126L1560.84 1126C1510.67 1126 1470 1085.33 1470 1035.16Z" fill="#83CBEB" fill-rule="evenodd" fill-opacity="1"/><text fill="#000000" fill-opacity="1" font-family="Aptos,Aptos_MSFontService,sans-serif" font-style="normal" font-variant="normal" font-weight="400" font-stretch="normal" font-size="83" text-anchor="start" direction="ltr" writing-mode="lr-tb" unicode-bidi="normal" text-decoration="none" transform="matrix(1 0 0 1 1540.57 781)">(Optional) use </text><text fill="#000000" fill-opacity="1" font-family="Aptos,Aptos_MSFontService,sans-serif" font-style="normal" font-variant="normal" font-weight="400" font-stretch="normal" font-size="83" text-anchor="start" direction="ltr" writing-mode="lr-tb" unicode-bidi="normal" text-decoration="none" transform="matrix(1 0 0 1 1530.44 880)">pedigree file to </text><text fill="#000000" fill-opacity="1" font-family="Aptos,Aptos_MSFontService,sans-serif" font-style="normal" font-variant="normal" font-weight="400" font-stretch="normal" font-size="83" text-anchor="start" direction="ltr" writing-mode="lr-tb" unicode-bidi="normal" text-decoration="none" transform="matrix(1 0 0 1 1572.03 979)">identify trios</text><path d="M2255 672.835C2255 622.668 2295.67 582 2345.83 582L2807.17 582C2857.33 582 2898 622.668 2898 672.835L2898 1036.17C2898 1086.33 2857.33 1127 2807.17 1127L2345.83 1127C2295.67 1127 2255 1086.33 2255 1036.17Z" fill="#E97132" fill-rule="evenodd" fill-opacity="1"/><text fill="#000000" fill-opacity="1" font-family="Aptos,Aptos_MSFontService,sans-serif" font-style="normal" font-variant="normal" font-weight="400" font-stretch="normal" font-size="83" text-anchor="start" direction="ltr" writing-mode="lr-tb" unicode-bidi="normal" text-decoration="none" transform="matrix(1 0 0 1 2329.75 782)">Split BAM into </text><text fill="#000000" fill-opacity="1" font-family="Aptos,Aptos_MSFontService,sans-serif" font-style="normal" font-variant="normal" font-weight="400" font-stretch="normal" font-size="83" text-anchor="start" direction="ltr" writing-mode="lr-tb" unicode-bidi="normal" text-decoration="none" transform="matrix(1 0 0 1 2395.27 881)">per</text><text fill="#000000" fill-opacity="1" font-family="Aptos,Aptos_MSFontService,sans-serif" font-style="normal" font-variant="normal" font-weight="400" font-stretch="normal" font-size="83" text-anchor="start" direction="ltr" writing-mode="lr-tb" unicode-bidi="normal" text-decoration="none" transform="matrix(1 0 0 1 2509.26 881)">-</text><text fill="#000000" fill-opacity="1" font-family="Aptos,Aptos_MSFontService,sans-serif" font-style="normal" font-variant="normal" font-weight="400" font-stretch="normal" font-size="83" text-anchor="start" direction="ltr" writing-mode="lr-tb" unicode-bidi="normal" text-decoration="none" transform="matrix(1 0 0 1 2537.33 881)">region </text><text fill="#000000" fill-opacity="1" font-family="Aptos,Aptos_MSFontService,sans-serif" font-style="normal" font-variant="normal" font-weight="400" font-stretch="normal" font-size="83" text-anchor="start" direction="ltr" writing-mode="lr-tb" unicode-bidi="normal" text-decoration="none" transform="matrix(1 0 0 1 2429.12 980)">BAMlets</text><path d="M3079 671.835C3079 621.668 3119.67 581 3169.83 581L3631.17 581C3681.33 581 3722 621.668 3722 671.835L3722 1035.17C3722 1085.33 3681.33 1126 3631.17 1126L3169.83 1126C3119.67 1126 3079 1085.33 3079 1035.17Z" fill="#0F9ED5" fill-rule="evenodd" fill-opacity="1"/><text fill="#000000" fill-opacity="1" font-family="Aptos,Aptos_MSFontService,sans-serif" font-style="normal" font-variant="normal" font-weight="400" font-stretch="normal" font-size="83" text-anchor="start" direction="ltr" writing-mode="lr-tb" unicode-bidi="normal" text-decoration="none" transform="matrix(1 0 0 1 3157.83 732)">Extract region </text><text fill="#000000" fill-opacity="1" font-family="Aptos,Aptos_MSFontService,sans-serif" font-style="normal" font-variant="normal" font-weight="400" font-stretch="normal" font-size="83" text-anchor="start" direction="ltr" writing-mode="lr-tb" unicode-bidi="normal" text-decoration="none" transform="matrix(1 0 0 1 3167.05 831)">copy number </text><text fill="#000000" fill-opacity="1" font-family="Aptos,Aptos_MSFontService,sans-serif" font-style="normal" font-variant="normal" font-weight="400" font-stretch="normal" font-size="83" text-anchor="start" direction="ltr" writing-mode="lr-tb" unicode-bidi="normal" text-decoration="none" transform="matrix(1 0 0 1 3195.28 930)">and special </text><text fill="#000000" fill-opacity="1" font-family="Aptos,Aptos_MSFontService,sans-serif" font-style="normal" font-variant="normal" font-weight="400" font-stretch="normal" font-size="83" text-anchor="start" direction="ltr" writing-mode="lr-tb" unicode-bidi="normal" text-decoration="none" transform="matrix(1 0 0 1 3333.88 1029)">info</text><path d="M651 1560.83C651 1510.67 691.668 1470 741.835 1470L1203.16 1470C1253.33 1470 1294 1510.67 1294 1560.83L1294 1924.16C1294 1974.33 1253.33 2015 1203.16 2015L741.835 2015C691.668 2015 651 1974.33 651 1924.16Z" fill="#E59EDD" fill-rule="evenodd" fill-opacity="1"/><text fill="#000000" fill-opacity="1" font-family="Aptos,Aptos_MSFontService,sans-serif" font-style="normal" font-variant="normal" font-weight="400" font-stretch="normal" font-size="83" text-anchor="start" direction="ltr" writing-mode="lr-tb" unicode-bidi="normal" text-decoration="none" transform="matrix(1 0 0 1 728.443 1670)">Generate per</text><text fill="#000000" fill-opacity="1" font-family="Aptos,Aptos_MSFontService,sans-serif" font-style="normal" font-variant="normal" font-weight="400" font-stretch="normal" font-size="83" text-anchor="start" direction="ltr" writing-mode="lr-tb" unicode-bidi="normal" text-decoration="none" transform="matrix(1 0 0 1 1188.31 1670)">-</text><text fill="#000000" fill-opacity="1" font-family="Aptos,Aptos_MSFontService,sans-serif" font-style="normal" font-variant="normal" font-weight="400" font-stretch="normal" font-size="83" text-anchor="start" direction="ltr" writing-mode="lr-tb" unicode-bidi="normal" text-decoration="none" transform="matrix(1 0 0 1 790.937 1769)">region IGV </text><text fill="#000000" fill-opacity="1" font-family="Aptos,Aptos_MSFontService,sans-serif" font-style="normal" font-variant="normal" font-weight="400" font-stretch="normal" font-size="83" text-anchor="start" direction="ltr" writing-mode="lr-tb" unicode-bidi="normal" text-decoration="none" transform="matrix(1 0 0 1 752.689 1868)">session files</text><path d="M1472 1560.83C1472 1510.67 1512.67 1470 1562.83 1470L2024.17 1470C2074.33 1470 2115 1510.67 2115 1560.83L2115 1924.16C2115 1974.33 2074.33 2015 2024.17 2015L1562.83 2015C1512.67 2015 1472 1974.33 1472 1924.16Z" fill="#4EA72E" fill-rule="evenodd" fill-opacity="1"/><text fill="#000000" fill-opacity="1" font-family="Aptos,Aptos_MSFontService,sans-serif" font-style="normal" font-variant="normal" font-weight="400" font-stretch="normal" font-size="83" text-anchor="start" direction="ltr" writing-mode="lr-tb" unicode-bidi="normal" text-decoration="none" transform="matrix(1 0 0 1 1601.98 1720)">Create IGV </text><text fill="#000000" fill-opacity="1" font-family="Aptos,Aptos_MSFontService,sans-serif" font-style="normal" font-variant="normal" font-weight="400" font-stretch="normal" font-size="83" text-anchor="start" direction="ltr" writing-mode="lr-tb" unicode-bidi="normal" text-decoration="none" transform="matrix(1 0 0 1 1580.92 1819)">batch script</text><path d="M2260 1560.84C2260 1510.67 2300.67 1470 2350.84 1470L2813.16 1470C2863.33 1470 2904 1510.67 2904 1560.84L2904 1924.16C2904 1974.33 2863.33 2015 2813.16 2015L2350.84 2015C2300.67 2015 2260 1974.33 2260 1924.16Z" fill="#FFC000" fill-rule="evenodd" fill-opacity="1"/><text fill="#000000" fill-opacity="1" font-family="Aptos,Aptos_MSFontService,sans-serif" font-style="normal" font-variant="normal" font-weight="400" font-stretch="normal" font-size="83" text-anchor="start" direction="ltr" writing-mode="lr-tb" unicode-bidi="normal" text-decoration="none" transform="matrix(1 0 0 1 2345.91 1621)">Generate IGV </text><text fill="#000000" fill-opacity="1" font-family="Aptos,Aptos_MSFontService,sans-serif" font-style="normal" font-variant="normal" font-weight="400" font-stretch="normal" font-size="83" text-anchor="start" direction="ltr" writing-mode="lr-tb" unicode-bidi="normal" text-decoration="none" transform="matrix(1 0 0 1 2362.16 1720)">screenshots </text><text fill="#000000" fill-opacity="1" font-family="Aptos,Aptos_MSFontService,sans-serif" font-style="normal" font-variant="normal" font-weight="400" font-stretch="normal" font-size="83" text-anchor="start" direction="ltr" writing-mode="lr-tb" unicode-bidi="normal" text-decoration="none" transform="matrix(1 0 0 1 2420.73 1819)">via batch </text><text fill="#000000" fill-opacity="1" font-family="Aptos,Aptos_MSFontService,sans-serif" font-style="normal" font-variant="normal" font-weight="400" font-stretch="normal" font-size="83" text-anchor="start" direction="ltr" writing-mode="lr-tb" unicode-bidi="normal" text-decoration="none" transform="matrix(1 0 0 1 2479.17 1918)">mode</text><path d="M1345 804 1399 804 1399 785 1437 823 1399 861 1399 842 1345 842Z" fill="#404040" fill-rule="evenodd" fill-opacity="1"/><path d="M2146 804 2200 804 2200 785 2238 823 2200 861 2200 842 2146 842Z" fill="#404040" fill-rule="evenodd" fill-opacity="1"/><path d="M2147 1711 2201 1711 2201 1692 2239 1730 2201 1768 2201 1749 2147 1749Z" fill="#404040" fill-rule="evenodd" fill-opacity="1"/><path d="M2957 804 3011 804 3011 785 3049 823 3011 861 3011 842 2957 842Z" fill="#404040" fill-rule="evenodd" fill-opacity="1"/><path d="M2958 1732 3012 1732 3012 1713 3050 1751 3012 1789 3012 1770 2958 1770Z" fill="#404040" fill-rule="evenodd" fill-opacity="1"/><path d="M1347 1721 1401 1721 1401 1702 1439 1740 1401 1778 1401 1759 1347 1759Z" fill="#404040" fill-rule="evenodd" fill-opacity="1"/><path d="M0 3358 0 227.366C-2.672e-14 101.795 101.796-2.67199e-14 227.367-5.34398e-14L285.177 0C410.749-5.34398e-14 512.544 101.795 512.544 227.366L512.541 227.366 526 227.366 494.05 250.374 462.101 227.366 475.56 227.366C475.56 122.221 390.323 36.9843 285.177 36.9843L227.367 36.9843C122.222 36.9843 36.9844 122.221 36.9844 227.366L36.9844 3358Z" fill="#404040" fill-rule="evenodd" fill-opacity="1" transform="matrix(1.83697e-16 1 1 -1.83697e-16 392 1251)"/><path d="M3750.5 830.5 3785.32 830.5C3880.41 830.5 3957.5 907.587 3957.5 1002.68L3957.5 1113.69C3957.5 1208.79 3880.41 1285.87 3785.32 1285.87L3750.5 1285.87 3750.5 1286.5 3750.5 1269.31 3750.5 1252.12 3750.5 1252.75 3785.32 1252.75C3862.12 1252.75 3924.38 1190.49 3924.38 1113.69L3924.38 1002.68C3924.38 925.881 3862.12 863.624 3785.32 863.624L3750.5 863.624Z" stroke="#404040" stroke-width="3.4375" stroke-linecap="butt" stroke-linejoin="miter" stroke-miterlimit="8" stroke-opacity="1" fill="#404040" fill-rule="evenodd" fill-opacity="1"/><path d="M651.5 1376.83C651.5 1367.81 658.813 1360.5 667.834 1360.5L2882.17 1360.5C2891.19 1360.5 2898.5 1367.81 2898.5 1376.83L2898.5 1442.17C2898.5 1451.19 2891.19 1458.5 2882.17 1458.5L667.834 1458.5C658.813 1458.5 651.5 1451.19 651.5 1442.17Z" stroke="#404040" stroke-width="6.875" stroke-linecap="butt" stroke-linejoin="miter" stroke-miterlimit="8" stroke-opacity="1" fill="none" fill-rule="evenodd"/><text fill="#000000" fill-opacity="1" font-family="Aptos,Aptos_MSFontService,sans-serif" font-style="normal" font-variant="normal" font-weight="400" font-stretch="normal" font-size="83" text-anchor="start" direction="ltr" writing-mode="lr-tb" unicode-bidi="normal" text-decoration="none" transform="matrix(1 0 0 1 1323.14 1436)">For each sample and trio:</text><path d="M3107 1560.83C3107 1510.67 3147.67 1470 3197.84 1470L3659.17 1470C3709.33 1470 3750 1510.67 3750 1560.83L3750 1924.16C3750 1974.33 3709.33 2015 3659.17 2015L3197.84 2015C3147.67 2015 3107 1974.33 3107 1924.16Z" fill="#E382FF" fill-rule="evenodd" fill-opacity="1"/><text fill="#000000" fill-opacity="1" font-family="Aptos,Aptos_MSFontService,sans-serif" font-style="normal" font-variant="normal" font-weight="400" font-stretch="normal" font-size="83" text-anchor="start" direction="ltr" writing-mode="lr-tb" unicode-bidi="normal" text-decoration="none" transform="matrix(1 0 0 1 3189.47 1670)">Write custom </text><text fill="#000000" fill-opacity="1" font-family="Aptos,Aptos_MSFontService,sans-serif" font-style="normal" font-variant="normal" font-weight="400" font-stretch="normal" font-size="83" text-anchor="start" direction="ltr" writing-mode="lr-tb" unicode-bidi="normal" text-decoration="none" transform="matrix(1 0 0 1 3202.42 1769)">web page for </text><text fill="#000000" fill-opacity="1" font-family="Aptos,Aptos_MSFontService,sans-serif" font-style="normal" font-variant="normal" font-weight="400" font-stretch="normal" font-size="83" text-anchor="start" direction="ltr" writing-mode="lr-tb" unicode-bidi="normal" text-decoration="none" transform="matrix(1 0 0 1 3296.06 1868)">viewing</text></g></g></svg>