<svg width="1236" height="548" xmlns="http://www.w3.org/2000/svg" xmlns:xlink="http://www.w3.org/1999/xlink" xml:space="preserve" overflow="hidden"><g transform="translate(-66 -1652)"><g><g><g><g><path d="M95.2582 57.5698 305.483 57.5698 338.331 90.4182 338.331 254.656 95.2582 254.656Z" stroke="#156082" stroke-width="2.37713" stroke-linecap="butt" stroke-linejoin="miter" stroke-miterlimit="8" stroke-opacity="1" fill="none" fill-rule="evenodd" transform="matrix(1.00022 0 0 1 43.4828 1645.39)"/><text fill="#000000" fill-opacity="1" font-family="Aptos,Aptos_MSFontService,sans-serif" font-style="normal" font-variant="normal" font-weight="400" font-stretch="normal" font-size="83" text-anchor="start" direction="ltr" writing-mode="lr-tb" unicode-bidi="normal" text-decoration="none" transform="matrix(0.345841 0 0 0.345765 186.595 1784)">Paraphase</text><text fill="#000000" fill-opacity="1" font-family="Aptos,Aptos_MSFontService,sans-serif" font-style="normal" font-variant="normal" font-weight="400" font-stretch="normal" font-size="83" text-anchor="start" direction="ltr" writing-mode="lr-tb" unicode-bidi="normal" text-decoration="none" transform="matrix(0.345841 0 0 0.345765 206.789 1819)">output:</text><text fill="#000000" fill-opacity="1" font-family="Aptos,Aptos_MSFontService,sans-serif" font-style="normal" font-variant="normal" font-weight="400" font-stretch="normal" font-size="83" text-anchor="start" direction="ltr" writing-mode="lr-tb" unicode-bidi="normal" text-decoration="none" transform="matrix(0.345841 0 0 0.345765 182.775 1853)">BAM+JSON</text><text fill="#000000" fill-opacity="1" font-family="Aptos,Aptos_MSFontService,sans-serif" font-style="normal" font-variant="normal" font-weight="400" font-stretch="normal" font-size="83" text-anchor="start" direction="ltr" writing-mode="lr-tb" unicode-bidi="normal" text-decoration="none" transform="matrix(0.345841 0 0 0.345765 261.634 1689)">A</text><text fill="#000000" fill-opacity="1" font-family="Aptos,Aptos_MSFontService,sans-serif" font-style="normal" font-variant="normal" font-weight="400" font-stretch="normal" font-size="83" text-anchor="start" direction="ltr" writing-mode="lr-tb" unicode-bidi="normal" text-decoration="none" transform="matrix(0.345841 0 0 0.345765 535.726 1689)">B</text><text fill="#000000" fill-opacity="1" font-family="Aptos,Aptos_MSFontService,sans-serif" font-style="normal" font-variant="normal" font-weight="400" font-stretch="normal" font-size="83" text-anchor="start" direction="ltr" writing-mode="lr-tb" unicode-bidi="normal" text-decoration="none" transform="matrix(0.345841 0 0 0.345765 807.703 1689)">C</text><text fill="#000000" fill-opacity="1" font-family="Aptos,Aptos_MSFontService,sans-serif" font-style="normal" font-variant="normal" font-weight="400" font-stretch="normal" font-size="83" text-anchor="start" direction="ltr" writing-mode="lr-tb" unicode-bidi="normal" text-decoration="none" transform="matrix(0.345841 0 0 0.345765 1101.43 1689)">D</text><text fill="#000000" fill-opacity="1" font-family="Aptos,Aptos_MSFontService,sans-serif" font-style="normal" font-variant="normal" font-weight="400" font-stretch="normal" font-size="83" text-anchor="start" direction="ltr" writing-mode="lr-tb" unicode-bidi="normal" text-decoration="none" transform="matrix(0.345841 0 0 0.345765 253.905 2111)">E</text><text fill="#000000" fill-opacity="1" font-family="Aptos,Aptos_MSFontService,sans-serif" font-style="normal" font-variant="normal" font-weight="400" font-stretch="normal" font-size="83" text-anchor="start" direction="ltr" writing-mode="lr-tb" unicode-bidi="normal" text-decoration="none" transform="matrix(0.345841 0 0 0.345765 532.804 2111)">F</text><text fill="#000000" fill-opacity="1" font-family="Aptos,Aptos_MSFontService,sans-serif" font-style="normal" font-variant="normal" font-weight="400" font-stretch="normal" font-size="83" text-anchor="start" direction="ltr" writing-mode="lr-tb" unicode-bidi="normal" text-decoration="none" transform="matrix(0.345841 0 0 0.345765 807.703 2111)">G</text><path d="M396.938 88.8045C396.938 71.4585 411 57.397 428.347 57.397L587.856 57.397C605.203 57.397 619.265 71.4585 619.265 88.8045L619.265 214.431C619.265 231.777 605.203 245.839 587.856 245.839L428.347 245.839C411 245.839 396.938 231.777 396.938 214.431Z" fill="#83CBEB" fill-rule="evenodd" fill-opacity="1" transform="matrix(1.00022 0 0 1 43.4828 1645.39)"/><text fill="#000000" fill-opacity="1" font-family="Aptos,Aptos_MSFontService,sans-serif" font-style="normal" font-variant="normal" font-weight="400" font-stretch="normal" font-size="83" text-anchor="start" direction="ltr" writing-mode="lr-tb" unicode-bidi="normal" text-decoration="none" transform="matrix(0.345841 0 0 0.345765 464.711 1772)">(Optional) use </text><text fill="#000000" fill-opacity="1" font-family="Aptos,Aptos_MSFontService,sans-serif" font-style="normal" font-variant="normal" font-weight="400" font-stretch="normal" font-size="83" text-anchor="start" direction="ltr" writing-mode="lr-tb" unicode-bidi="normal" text-decoration="none" transform="matrix(0.345841 0 0 0.345765 461.211 1806)">pedigree file to </text><text fill="#000000" fill-opacity="1" font-family="Aptos,Aptos_MSFontService,sans-serif" font-style="normal" font-variant="normal" font-weight="400" font-stretch="normal" font-size="83" text-anchor="start" direction="ltr" writing-mode="lr-tb" unicode-bidi="normal" text-decoration="none" transform="matrix(0.345841 0 0 0.345765 475.594 1840)">identify trios</text><path d="M668.018 89.1503C668.018 71.8043 682.08 57.7427 699.423 57.7427L858.939 57.7427C876.282 57.7427 890.344 71.8043 890.344 89.1503L890.344 214.777C890.344 232.123 876.282 246.185 858.939 246.185L699.423 246.185C682.08 246.185 668.018 232.123 668.018 214.777Z" fill="#E97132" fill-rule="evenodd" fill-opacity="1" transform="matrix(1.00022 0 0 1 43.4828 1645.39)"/><text fill="#000000" fill-opacity="1" font-family="Aptos,Aptos_MSFontService,sans-serif" font-style="normal" font-variant="normal" font-weight="400" font-stretch="normal" font-size="83" text-anchor="start" direction="ltr" writing-mode="lr-tb" unicode-bidi="normal" text-decoration="none" transform="matrix(0.345841 0 0 0.345765 737.645 1772)">Split BAM into </text><text fill="#000000" fill-opacity="1" font-family="Aptos,Aptos_MSFontService,sans-serif" font-style="normal" font-variant="normal" font-weight="400" font-stretch="normal" font-size="83" text-anchor="start" direction="ltr" writing-mode="lr-tb" unicode-bidi="normal" text-decoration="none" transform="matrix(0.345841 0 0 0.345765 760.305 1807)">per</text><text fill="#000000" fill-opacity="1" font-family="Aptos,Aptos_MSFontService,sans-serif" font-style="normal" font-variant="normal" font-weight="400" font-stretch="normal" font-size="83" text-anchor="start" direction="ltr" writing-mode="lr-tb" unicode-bidi="normal" text-decoration="none" transform="matrix(0.345841 0 0 0.345765 799.727 1807)">-</text><text fill="#000000" fill-opacity="1" font-family="Aptos,Aptos_MSFontService,sans-serif" font-style="normal" font-variant="normal" font-weight="400" font-stretch="normal" font-size="83" text-anchor="start" direction="ltr" writing-mode="lr-tb" unicode-bidi="normal" text-decoration="none" transform="matrix(0.345841 0 0 0.345765 809.435 1807)">region </text><text fill="#000000" fill-opacity="1" font-family="Aptos,Aptos_MSFontService,sans-serif" font-style="normal" font-variant="normal" font-weight="400" font-stretch="normal" font-size="83" text-anchor="start" direction="ltr" writing-mode="lr-tb" unicode-bidi="normal" text-decoration="none" transform="matrix(0.345841 0 0 0.345765 772.012 1841)">BAMlets</text><path d="M952.928 88.8045C952.928 71.4585 966.99 57.397 984.334 57.397L1144.19 57.397C1161.54 57.397 1175.6 71.4585 1175.6 88.8045L1175.6 214.431C1175.6 231.777 1161.54 245.839 1144.19 245.839L984.334 245.839C966.99 245.839 952.928 231.777 952.928 214.431Z" fill="#0F9ED5" fill-rule="evenodd" fill-opacity="1" transform="matrix(1.00022 0 0 1 43.4828 1645.39)"/><text fill="#000000" fill-opacity="1" font-family="Aptos,Aptos_MSFontService,sans-serif" font-style="normal" font-variant="normal" font-weight="400" font-stretch="normal" font-size="83" text-anchor="start" direction="ltr" writing-mode="lr-tb" unicode-bidi="normal" text-decoration="none" transform="matrix(0.345841 0 0 0.345765 1024.03 1755)">Extract region </text><text fill="#000000" fill-opacity="1" font-family="Aptos,Aptos_MSFontService,sans-serif" font-style="normal" font-variant="normal" font-weight="400" font-stretch="normal" font-size="83" text-anchor="start" direction="ltr" writing-mode="lr-tb" unicode-bidi="normal" text-decoration="none" transform="matrix(0.345841 0 0 0.345765 1027.22 1789)">copy number </text><text fill="#000000" fill-opacity="1" font-family="Aptos,Aptos_MSFontService,sans-serif" font-style="normal" font-variant="normal" font-weight="400" font-stretch="normal" font-size="83" text-anchor="start" direction="ltr" writing-mode="lr-tb" unicode-bidi="normal" text-decoration="none" transform="matrix(0.345841 0 0 0.345765 1036.98 1823)">and special </text><text fill="#000000" fill-opacity="1" font-family="Aptos,Aptos_MSFontService,sans-serif" font-style="normal" font-variant="normal" font-weight="400" font-stretch="normal" font-size="83" text-anchor="start" direction="ltr" writing-mode="lr-tb" unicode-bidi="normal" text-decoration="none" transform="matrix(0.345841 0 0 0.345765 1084.92 1857)">info</text><path d="M113.411 396.188C113.411 378.844 127.472 364.782 144.818 364.782L304.676 364.782C322.022 364.782 336.083 378.844 336.083 396.188L336.083 521.815C336.083 539.161 322.022 553.224 304.676 553.224L144.818 553.224C127.472 553.224 113.411 539.161 113.411 521.815Z" fill="#E59EDD" fill-rule="evenodd" fill-opacity="1" transform="matrix(1.00022 0 0 1 43.4828 1645.39)"/><text fill="#000000" fill-opacity="1" font-family="Aptos,Aptos_MSFontService,sans-serif" font-style="normal" font-variant="normal" font-weight="400" font-stretch="normal" font-size="83" text-anchor="start" direction="ltr" writing-mode="lr-tb" unicode-bidi="normal" text-decoration="none" transform="matrix(0.345841 0 0 0.345765 183.846 2079)">Generate per</text><text fill="#000000" fill-opacity="1" font-family="Aptos,Aptos_MSFontService,sans-serif" font-style="normal" font-variant="normal" font-weight="400" font-stretch="normal" font-size="83" text-anchor="start" direction="ltr" writing-mode="lr-tb" unicode-bidi="normal" text-decoration="none" transform="matrix(0.345841 0 0 0.345765 342.888 2079)">-</text><text fill="#000000" fill-opacity="1" font-family="Aptos,Aptos_MSFontService,sans-serif" font-style="normal" font-variant="normal" font-weight="400" font-stretch="normal" font-size="83" text-anchor="start" direction="ltr" writing-mode="lr-tb" unicode-bidi="normal" text-decoration="none" transform="matrix(0.345841 0 0 0.345765 205.459 2114)">region IGV </text><text fill="#000000" fill-opacity="1" font-family="Aptos,Aptos_MSFontService,sans-serif" font-style="normal" font-variant="normal" font-weight="400" font-stretch="normal" font-size="83" text-anchor="start" direction="ltr" writing-mode="lr-tb" unicode-bidi="normal" text-decoration="none" transform="matrix(0.345841 0 0 0.345765 192.231 2148)">session files</text><path d="M397.284 396.188C397.284 378.844 411.346 364.782 428.69 364.782L588.551 364.782C605.894 364.782 619.956 378.844 619.956 396.188L619.956 521.815C619.956 539.161 605.894 553.224 588.551 553.224L428.69 553.224C411.346 553.224 397.284 539.161 397.284 521.815Z" fill="#4EA72E" fill-rule="evenodd" fill-opacity="1" transform="matrix(1.00022 0 0 1 43.4828 1645.39)"/><text fill="#000000" fill-opacity="1" font-family="Aptos,Aptos_MSFontService,sans-serif" font-style="normal" font-variant="normal" font-weight="400" font-stretch="normal" font-size="83" text-anchor="start" direction="ltr" writing-mode="lr-tb" unicode-bidi="normal" text-decoration="none" transform="matrix(0.345841 0 0 0.345765 485.952 2097)">Create IGV </text><text fill="#000000" fill-opacity="1" font-family="Aptos,Aptos_MSFontService,sans-serif" font-style="normal" font-variant="normal" font-weight="400" font-stretch="normal" font-size="83" text-anchor="start" direction="ltr" writing-mode="lr-tb" unicode-bidi="normal" text-decoration="none" transform="matrix(0.345841 0 0 0.345765 478.669 2131)">batch script</text><path d="M670.092 396.188C670.092 378.844 684.155 364.782 701.502 364.782L861.013 364.782C878.357 364.782 892.419 378.844 892.419 396.188L892.419 521.815C892.419 539.161 878.357 553.224 861.013 553.224L701.502 553.224C684.155 553.224 670.092 539.161 670.092 521.815Z" fill="#FFC000" fill-rule="evenodd" fill-opacity="1" transform="matrix(1.00022 0 0 1 43.4828 1645.39)"/><text fill="#000000" fill-opacity="1" font-family="Aptos,Aptos_MSFontService,sans-serif" font-style="normal" font-variant="normal" font-weight="400" font-stretch="normal" font-size="83" text-anchor="start" direction="ltr" writing-mode="lr-tb" unicode-bidi="normal" text-decoration="none" transform="matrix(0.345841 0 0 0.345765 743.234 2062)">Generate IGV </text><text fill="#000000" fill-opacity="1" font-family="Aptos,Aptos_MSFontService,sans-serif" font-style="normal" font-variant="normal" font-weight="400" font-stretch="normal" font-size="83" text-anchor="start" direction="ltr" writing-mode="lr-tb" unicode-bidi="normal" text-decoration="none" transform="matrix(0.345841 0 0 0.345765 748.851 2097)">screenshots </text><text fill="#000000" fill-opacity="1" font-family="Aptos,Aptos_MSFontService,sans-serif" font-style="normal" font-variant="normal" font-weight="400" font-stretch="normal" font-size="83" text-anchor="start" direction="ltr" writing-mode="lr-tb" unicode-bidi="normal" text-decoration="none" transform="matrix(0.345841 0 0 0.345765 769.11 2131)">via batch </text><text fill="#000000" fill-opacity="1" font-family="Aptos,Aptos_MSFontService,sans-serif" font-style="normal" font-variant="normal" font-weight="400" font-stretch="normal" font-size="83" text-anchor="start" direction="ltr" writing-mode="lr-tb" unicode-bidi="normal" text-decoration="none" transform="matrix(0.345841 0 0 0.345765 789.321 2165)">mode</text><path d="M353.372 134.503 372.043 134.503 372.043 127.933 385.182 141.072 372.043 154.211 372.043 147.642 353.372 147.642Z" fill="#404040" fill-rule="evenodd" fill-opacity="1" transform="matrix(1.00022 0 0 1 43.4828 1645.39)"/><path d="M630.329 134.503 649.001 134.503 649.001 127.933 662.14 141.072 649.001 154.211 649.001 147.642 630.329 147.642Z" fill="#404040" fill-rule="evenodd" fill-opacity="1" transform="matrix(1.00022 0 0 1 43.4828 1645.39)"/><path d="M631.021 448.111 649.346 448.111 649.346 441.542 662.485 454.681 649.346 467.82 649.346 461.25 631.021 461.25Z" fill="#404040" fill-rule="evenodd" fill-opacity="1" transform="matrix(1.00022 0 0 1 43.4828 1645.39)"/><path d="M911.09 134.503 929.416 134.503 929.416 127.933 942.555 141.072 929.416 154.211 929.416 147.642 911.09 147.642Z" fill="#404040" fill-rule="evenodd" fill-opacity="1" transform="matrix(1.00022 0 0 1 43.4828 1645.39)"/><path d="M911.436 455.372 930.107 455.372 930.107 448.803 943.247 461.942 930.107 475.081 930.107 468.511 911.436 468.511Z" fill="#404040" fill-rule="evenodd" fill-opacity="1" transform="matrix(1.00022 0 0 1 43.4828 1645.39)"/><path d="M354.409 451.223 372.734 451.223 372.734 444.654 385.874 457.793 372.734 470.932 372.734 464.362 354.409 464.362Z" fill="#404040" fill-rule="evenodd" fill-opacity="1" transform="matrix(1.00022 0 0 1 43.4828 1645.39)"/><path d="M0 1160.73 0 78.6045C-9.23611e-15 35.1926 35.1926-9.23604e-15 78.6048-9.23604e-15L98.2781 0C141.69-9.23604e-15 176.883 35.1926 176.883 78.6045L176.882 78.6045 181.527 78.6045 170.5 86.5446 159.474 78.6045 164.119 78.6045C164.119 42.2417 134.641 12.7637 98.2781 12.7637L78.6048 12.7625C42.2417 12.7625 12.7638 42.2404 12.7638 78.6034L12.7625 1160.73Z" fill="#404040" fill-rule="evenodd" fill-opacity="1" transform="matrix(1.83738e-16 1 1.00022 -1.83697e-16 67.6917 1934.45)"/><path d="M1185.11 143.665 1197.15 143.665C1230.03 143.665 1256.68 170.319 1256.68 203.198L1256.68 241.584C1256.68 274.463 1230.03 301.117 1197.15 301.117L1185.11 301.117 1185.11 301.334 1185.11 295.391 1185.11 289.447 1185.11 289.664 1197.15 289.664C1223.7 289.664 1245.23 268.138 1245.23 241.584L1245.23 203.198C1245.23 176.645 1223.7 155.118 1197.15 155.118L1185.11 155.118Z" stroke="#404040" stroke-width="1.18857" stroke-linecap="butt" stroke-linejoin="miter" stroke-miterlimit="8" stroke-opacity="1" fill="#404040" fill-rule="evenodd" fill-opacity="1" transform="matrix(1.00022 0 0 1 43.4828 1645.39)"/><path d="M113.584 332.568C113.584 329.449 116.112 326.921 119.231 326.921L884.871 326.921C887.99 326.921 890.517 329.449 890.517 332.568L890.517 355.159C890.517 358.278 887.99 360.806 884.871 360.806L119.231 360.806C116.112 360.806 113.584 358.278 113.584 355.159Z" stroke="#404040" stroke-width="2.37713" stroke-linecap="butt" stroke-linejoin="miter" stroke-miterlimit="8" stroke-opacity="1" fill="none" fill-rule="evenodd" transform="matrix(1.00022 0 0 1 43.4828 1645.39)"/><text fill="#000000" fill-opacity="1" font-family="Aptos,Aptos_MSFontService,sans-serif" font-style="normal" font-variant="normal" font-weight="400" font-stretch="normal" font-size="83" text-anchor="start" direction="ltr" writing-mode="lr-tb" unicode-bidi="normal" text-decoration="none" transform="matrix(0.345841 0 0 0.345765 389.518 1998)">For each sample and trio:</text><path d="M962.609 396.188C962.609 378.844 976.672 364.782 994.015 364.782L1153.53 364.782C1170.87 364.782 1184.94 378.844 1184.94 396.188L1184.94 521.815C1184.94 539.161 1170.87 553.224 1153.53 553.224L994.015 553.224C976.672 553.224 962.609 539.161 962.609 521.815Z" fill="#E382FF" fill-rule="evenodd" fill-opacity="1" transform="matrix(1.00022 0 0 1 43.4828 1645.39)"/><text fill="#000000" fill-opacity="1" font-family="Aptos,Aptos_MSFontService,sans-serif" font-style="normal" font-variant="normal" font-weight="400" font-stretch="normal" font-size="83" text-anchor="start" direction="ltr" writing-mode="lr-tb" unicode-bidi="normal" text-decoration="none" transform="matrix(0.345841 0 0 0.345765 1034.97 2079)">Write custom </text><text fill="#000000" fill-opacity="1" font-family="Aptos,Aptos_MSFontService,sans-serif" font-style="normal" font-variant="normal" font-weight="400" font-stretch="normal" font-size="83" text-anchor="start" direction="ltr" writing-mode="lr-tb" unicode-bidi="normal" text-decoration="none" transform="matrix(0.345841 0 0 0.345765 1039.45 2114)">web page for </text><text fill="#000000" fill-opacity="1" font-family="Aptos,Aptos_MSFontService,sans-serif" font-style="normal" font-variant="normal" font-weight="400" font-stretch="normal" font-size="83" text-anchor="start" direction="ltr" writing-mode="lr-tb" unicode-bidi="normal" text-decoration="none" transform="matrix(0.345841 0 0 0.345765 1071.83 2148)">viewing</text></g></g></g></g></g></svg>